<svg width="12" height="12" viewBox="0 0 12 12" fill="none" xmlns="http://www.w3.org/2000/svg">
<path d="M4.91534 1.37532L0.841356 9.84699C0.669707 10.2039 0.745216 10.6071 1.03832 10.8992C1.33147 11.1914 1.78314 11.3135 2.21707 11.2181L5.64415 10.464V6.77206C5.64415 6.60218 5.80377 6.46443 6.00068 6.46443C6.19757 6.46443 6.35722 6.60216 6.35722 6.77206V10.464L9.78428 11.2181C10.2182 11.3135 10.6699 11.1914 10.963 10.8992C11.2567 10.6065 11.3313 10.2033 11.16 9.84697L7.08603 1.3753C6.90055 0.989593 6.48466 0.75 6.00068 0.75C5.51671 0.75 5.1008 0.989593 4.91534 1.37532Z" fill="#1A1A1A"/>
</svg>
