<svg width="12" height="12" viewBox="0 0 12 12" fill="none" xmlns="http://www.w3.org/2000/svg">
<path d="M7.08533 10.6247L11.1593 2.15301C11.331 1.79611 11.2555 1.39291 10.9624 1.10077C10.6692 0.808641 10.2175 0.686455 9.78361 0.781939L6.35652 1.53599V5.22794C6.35652 5.39782 6.1969 5.53557 5.99999 5.53557C5.8031 5.53557 5.64345 5.39784 5.64345 5.22794V1.53599L2.21639 0.781939C1.78244 0.686455 1.33077 0.80862 1.03764 1.10077C0.743949 1.3935 0.669366 1.79675 0.840682 2.15303L4.91464 10.6247C5.10013 11.0104 5.51601 11.25 5.99999 11.25C6.48396 11.25 6.89987 11.0104 7.08533 10.6247Z" fill="#1A87DD"/>
</svg>
