<svg width="375" height="290" viewBox="0 0 375 290" fill="none" xmlns="http://www.w3.org/2000/svg">
<path d="M61.0533 119.505C99.6044 103.816 217.213 81.9181 313.305 113.043C358.9 127.812 381.819 153.998 357.927 179.81C332.606 207.166 194.313 228.612 112.05 209.039C-10.8887 179.788 31.3441 131.595 61.0533 119.505Z" fill="url(#paint0_linear_44_851)" fill-opacity="0.5"/>
<path fill-rule="evenodd" clip-rule="evenodd" d="M313.893 51.6156C313.12 51.011 312.464 50.2788 312.569 49.6308C313.618 48.9368 314.822 46.8549 313.923 44.0791C312.799 40.6093 310.327 39.2213 308.978 40.3779C307.63 41.5345 306.506 48.2429 309.877 49.6308C310.756 50.2768 312.403 51.5616 313.02 52.2878C312.536 52.7648 312.089 53.4003 311.737 54.1891C310.793 56.3024 311.974 57.48 312.854 58.0928C312.903 58.545 312.523 59.1608 312.014 59.7009C310.771 57.0975 308.716 56.1471 307.53 57.1641C306.182 58.3207 305.058 65.0291 308.429 66.417C309.478 67.1881 310.941 69.2866 311.121 69.8417C311.301 70.3969 312.914 70.0731 313.364 69.8417C312.315 69.302 310.941 67.5273 311.121 66.417C312.153 65.7344 313.335 63.7088 312.518 61.0008C313.261 60.1906 314.348 59.148 314.969 58.8036C318 57.9408 317.393 52.6148 316.276 51.6199C315.688 51.0955 314.786 51.1038 313.893 51.6156Z" fill="#F9759C"/>
<path d="M147.645 75.3739C148.803 77.4678 150.362 81.3348 150.814 81.4273C142.309 80.7641 135.439 68.8267 138.867 63.7606C133.148 63.7606 128.691 56.9 126.933 56.5577C134.582 55.4102 144.137 56.5702 145.969 63.5114C147.802 70.4526 146.487 73.2801 147.645 75.3739Z" fill="#6885EF" fill-opacity="0.5"/>
<path d="M143.879 55.7872C148.311 45.7254 156.841 41.7862 160.825 39.4116C161.201 41.6423 160.854 43.4929 159.699 47.8243C158.544 52.1557 155.822 57.2624 150.816 60.0084C156.313 65.1771 148.274 79.9463 147.526 81.4617C147.524 81.5021 147.515 81.5341 147.498 81.5572C147.453 81.6201 147.466 81.5842 147.526 81.4617C147.584 80.0354 138.493 68.0176 143.879 55.7872Z" fill="#6885EF"/>
<ellipse cx="48.0104" cy="231.619" rx="48.0104" ry="9.73263" fill="#F3F3F3"/>
<path d="M45.3917 222.858H95.7366V231.363C95.7366 231.363 92.6854 234.456 70.5641 234.456C48.4429 234.456 45.3917 231.363 45.3917 231.363V222.858Z" fill="url(#paint1_linear_44_851)"/>
<ellipse cx="70.5645" cy="222.858" rx="25.1725" ry="3.86587" fill="#F9AEC5"/>
<path d="M45.3917 213.612H95.7366V222.117C95.7366 222.117 92.6854 225.21 70.5641 225.21C48.4429 225.21 45.3917 222.117 45.3917 222.117V213.612Z" fill="url(#paint2_linear_44_851)"/>
<ellipse cx="70.5645" cy="213.612" rx="25.1725" ry="3.86587" fill="#F9AEC5"/>
<path d="M45.3917 204.682H95.7366V213.187C95.7366 213.187 92.6854 216.28 70.5641 216.28C48.4429 216.28 45.3917 213.187 45.3917 213.187V204.682Z" fill="url(#paint3_linear_44_851)"/>
<ellipse cx="70.5645" cy="204.682" rx="25.1725" ry="3.86587" fill="#F9AEC5"/>
<path d="M45.3917 195.752H95.7366V204.257C95.7366 204.257 92.6854 207.35 70.5641 207.35C48.4429 207.35 45.3917 204.257 45.3917 204.257V195.752Z" fill="url(#paint4_linear_44_851)"/>
<ellipse cx="70.5645" cy="195.752" rx="25.1725" ry="3.86587" fill="#F9AEC5"/>
<path d="M49.1674 186.822H99.5124V195.327C99.5124 195.327 96.4612 198.42 74.3399 198.42C52.2186 198.42 49.1674 195.327 49.1674 195.327V186.822Z" fill="url(#paint5_linear_44_851)"/>
<ellipse cx="74.34" cy="186.822" rx="25.1725" ry="3.86587" fill="#F9AEC5"/>
<ellipse cx="32.2382" cy="112.959" rx="25.9072" ry="5.25188" fill="#F3F3F3"/>
<path d="M30.8249 108.231H57.9918V112.821C57.9918 112.821 56.3453 114.489 44.4084 114.489C32.4714 114.489 30.8249 112.821 30.8249 112.821V108.231Z" fill="url(#paint6_linear_44_851)"/>
<ellipse cx="44.4087" cy="108.231" rx="13.5835" ry="2.08608" fill="#F9AEC5"/>
<path d="M30.8249 103.242H57.9918V107.831C57.9918 107.831 56.3453 109.5 44.4084 109.5C32.4714 109.5 30.8249 107.831 30.8249 107.831V103.242Z" fill="url(#paint7_linear_44_851)"/>
<ellipse cx="44.4087" cy="103.242" rx="13.5835" ry="2.08608" fill="#F9AEC5"/>
<path d="M30.8249 98.423H57.9918V103.012C57.9918 103.012 56.3453 104.681 44.4084 104.681C32.4714 104.681 30.8249 103.012 30.8249 103.012V98.423Z" fill="url(#paint8_linear_44_851)"/>
<ellipse cx="44.4087" cy="98.423" rx="13.5835" ry="2.08608" fill="#F9AEC5"/>
<path d="M30.8249 93.6041H57.9918V98.1934C57.9918 98.1934 56.3453 99.8623 44.4084 99.8623C32.4714 99.8623 30.8249 98.1934 30.8249 98.1934V93.6041Z" fill="url(#paint9_linear_44_851)"/>
<ellipse cx="44.4087" cy="93.6041" rx="13.5835" ry="2.08608" fill="#F9AEC5"/>
<path d="M30.9631 88.7853H58.1301V93.3747C58.1301 93.3747 56.4836 95.0436 44.5466 95.0436C32.6096 95.0436 30.9631 93.3747 30.9631 93.3747V88.7853Z" fill="url(#paint10_linear_44_851)"/>
<ellipse cx="44.5471" cy="88.7853" rx="13.5835" ry="2.08608" fill="#F9AEC5"/>
<ellipse cx="148.729" cy="86.0067" rx="25.9072" ry="5.25188" fill="#F3F3F3"/>
<path d="M147.316 81.2793H174.483V85.8687C174.483 85.8687 172.837 87.5376 160.9 87.5376C148.963 87.5376 147.316 85.8687 147.316 85.8687V81.2793Z" fill="url(#paint11_linear_44_851)"/>
<ellipse cx="160.9" cy="81.2793" rx="13.5835" ry="2.08608" fill="#F9AEC5"/>
<path d="M147.316 76.2899H174.483V80.8793C174.483 80.8793 172.837 82.5482 160.9 82.5482C148.963 82.5482 147.316 80.8793 147.316 80.8793V76.2899Z" fill="url(#paint12_linear_44_851)"/>
<ellipse cx="160.9" cy="76.29" rx="13.5835" ry="2.08608" fill="#F9AEC5"/>
<path d="M147.316 71.4712H174.483V76.0606C174.483 76.0606 172.837 77.7294 160.9 77.7294C148.963 77.7294 147.316 76.0606 147.316 76.0606V71.4712Z" fill="url(#paint13_linear_44_851)"/>
<ellipse cx="160.9" cy="71.4712" rx="13.5835" ry="2.08608" fill="#F9AEC5"/>
<path d="M147.316 66.6522H174.483V71.2416C174.483 71.2416 172.837 72.9105 160.9 72.9105C148.963 72.9105 147.316 71.2416 147.316 71.2416V66.6522Z" fill="url(#paint14_linear_44_851)"/>
<ellipse cx="160.9" cy="66.6522" rx="13.5835" ry="2.08608" fill="#F9AEC5"/>
<path d="M144.289 61.8334H171.456V66.4228C171.456 66.4228 169.809 68.0917 157.872 68.0917C145.935 68.0917 144.289 66.4228 144.289 66.4228V61.8334Z" fill="url(#paint15_linear_44_851)"/>
<ellipse cx="157.873" cy="61.8334" rx="13.5835" ry="2.08608" fill="#F9AEC5"/>
<ellipse cx="317.067" cy="74.5058" rx="25.9072" ry="5.25188" fill="#F3F3F3"/>
<path d="M315.654 69.7783H342.821V74.3677C342.821 74.3677 341.175 76.0366 329.238 76.0366C317.301 76.0366 315.654 74.3677 315.654 74.3677V69.7783Z" fill="url(#paint16_linear_44_851)"/>
<ellipse cx="329.238" cy="69.7783" rx="13.5835" ry="2.08608" fill="#F9AEC5"/>
<path d="M315.654 64.789H342.821V69.3784C342.821 69.3784 341.175 71.0473 329.238 71.0473C317.301 71.0473 315.654 69.3784 315.654 69.3784V64.789Z" fill="url(#paint17_linear_44_851)"/>
<ellipse cx="329.238" cy="64.789" rx="13.5835" ry="2.08608" fill="#F9AEC5"/>
<path d="M315.654 59.9702H342.821V64.5596C342.821 64.5596 341.175 66.2285 329.238 66.2285C317.301 66.2285 315.654 64.5596 315.654 64.5596V59.9702Z" fill="url(#paint18_linear_44_851)"/>
<ellipse cx="329.238" cy="59.9702" rx="13.5835" ry="2.08608" fill="#F9AEC5"/>
<ellipse cx="289.962" cy="274.721" rx="50.0152" ry="12.1925" fill="#F3F3F3"/>
<path d="M289.012 270.55L287.746 259.961H293.127V270.55H289.012Z" fill="#FCD8E3"/>
<path d="M325.099 266.699L320.667 257.395L325.099 254.507L328.581 264.133L325.099 266.699Z" fill="#FCD8E3"/>
<path d="M282.048 226.913C281.795 224.09 283.842 205.63 284.897 196.753C287.64 196.432 293.76 195.983 296.293 196.753C299.458 197.715 307.689 191.298 308.638 192.261C309.588 193.223 311.487 204.453 311.804 207.341C312.057 209.651 313.176 221.994 313.703 227.876L326.049 255.149C326.302 257.202 322.145 258.571 320.034 258.999L304.84 231.405L296.293 213.437L293.127 230.122V261.245C292.114 262.272 288.485 261.673 286.796 261.245C285.319 250.978 282.301 229.737 282.048 226.913Z" fill="#3C56C6"/>
<path d="M244.429 137.762L248.307 140.27L245.688 144.724C244.679 144.203 241.633 142.707 237.514 140.887C232.366 138.612 228.082 130.09 229.947 127.992C231.811 125.895 233.774 127.099 237.33 128.839C240.175 130.231 243.269 134.103 244.429 137.762Z" fill="#FCD8E3"/>
<path d="M261.789 158.571L244.378 145.416C244.378 142.079 246.489 139.747 247.544 138.999L264.638 147.02H294.71C294.077 149.159 292.811 154.079 292.811 156.646C292.811 159.213 287.113 160.282 284.264 160.496L261.789 158.571Z" fill="#B2C3FF"/>
<path d="M317.986 203.454L318.967 200.47L321.636 201.133C321.526 201.841 321.238 203.967 320.973 206.802C320.641 210.345 316.33 214.598 314.672 213.889C313.014 213.18 313.345 211.763 313.677 209.282C313.942 207.298 315.996 204.871 317.986 203.454Z" fill="#FCD8E3"/>
<path d="M293.45 140.783C293.689 141.975 293.777 145.093 291.983 146.522C293.08 147.118 295.872 148.131 298.266 147.416C300.66 146.7 303.708 144.041 304.207 142.849C302.711 142.253 299.443 135.146 301.557 132.512C302.754 131.022 304.849 127.743 305.148 121.186C305.447 114.628 297.668 115.224 294.676 116.119C291.683 117.013 288.093 122.974 287.195 126.551C286.298 130.128 287.195 136.089 287.195 136.983C287.195 137.699 290.387 138.672 291.983 139.07C292.182 138.871 293.211 139.59 293.45 140.783Z" fill="#FCD8E3"/>
<path d="M284.897 158.25C285.657 153.63 289.962 147.555 291.861 145.737C293.022 146.165 294.077 146.699 296.609 146.699C299.142 146.699 302.307 143.491 303.574 141.886C303.574 141.886 316.236 149.801 317.818 151.833C319.401 153.865 323.896 177.63 324.149 180.71C324.466 184.56 323.833 202.748 322.25 203.71C320.984 204.48 318.768 202.534 317.818 201.464L316.552 182.956L308.638 164.667C308.216 168.518 308.638 174.678 308.638 176.218C308.638 177.758 308.216 188.625 308.638 192.261C308.533 192.796 307.309 194.314 303.257 196.111C299.205 197.908 288.696 198.143 284.897 197.395L284.897 179.106C284.897 175.897 283.947 164.026 284.897 158.25Z" fill="#B2C3FF"/>
<path d="M290.278 120.389C289.012 120.496 286.48 120.389 286.48 119.106C286.48 117.501 284.58 116.539 283.947 116.86C284.264 115.683 285.214 114.036 286.48 114.293C288.063 114.614 289.012 113.651 289.012 113.009C288.274 113.009 286.796 112.817 286.796 112.047C286.796 111.395 286.494 111.004 286.273 110.834C286.234 110.81 286.198 110.787 286.163 110.763C286.196 110.78 286.233 110.803 286.273 110.834C286.952 111.251 288.294 111.735 289.012 110.763C289.962 109.48 291.861 109.48 292.494 110.122C293.127 110.763 293.127 111.084 293.76 110.763C293.127 110.122 293.127 109.223 293.127 108.197C293.127 106.913 293.127 106.271 293.76 105.309C293.866 105.737 294.267 106.849 295.027 107.876C295.976 109.159 298.192 110.122 299.142 110.122C300.091 110.122 305.789 113.009 305.156 115.576C304.523 118.143 306.106 121.352 305.156 123.598C304.207 125.844 303.574 130.015 302.624 131.298C301.674 132.582 300.725 133.223 300.725 133.865C299.247 131.243 300.725 126.165 299.142 123.598C297.229 120.495 293.76 119.106 290.278 120.389Z" fill="#F9759C"/>
<path d="M322.567 271.191C323.833 269.651 324.36 266.913 324.466 265.737L328.898 263.17L332.38 271.191C332.274 272.047 331.24 274.272 327.948 276.325C324.656 278.379 318.979 279.106 316.552 279.213C316.447 278.571 316.299 276.967 316.552 275.683C316.869 274.079 320.984 273.117 322.567 271.191Z" fill="white"/>
<path d="M289.012 270.55C289.962 270.871 292.178 270.229 293.127 269.587L294.077 276.646C292.811 277.716 289.645 280.111 287.113 281.138C284.58 282.165 280.36 282.635 278.566 282.742C277.553 281.202 278.144 279.534 278.566 278.892C279.304 278.464 281.288 277.416 283.314 276.646C285.34 275.876 288.062 272.154 289.012 270.55Z" fill="white"/>
<path d="M97.4121 280.613L186.473 280.052L234.882 246.165H133.882C121.731 246.165 109.866 249.854 99.8577 256.745L91.6784 262.376C83.5658 267.961 87.5629 280.675 97.4121 280.613Z" fill="url(#paint19_linear_44_851)"/>
<path d="M175.053 124.36V262.136C175.053 273.894 188.273 280.8 197.924 274.083L227.172 250.461C233.049 245.715 236.464 238.566 236.464 231.012V74.2165C236.464 69.48 231.234 66.611 227.239 69.157L193.553 90.6292C182.03 97.9744 175.053 110.694 175.053 124.36Z" fill="#F3F3F3"/>
<path opacity="0.75" d="M177.586 125.953V258.87C177.586 271.105 191.444 278.194 201.365 271.033L229.895 250.44C236.406 245.74 240.263 238.199 240.263 230.169V74.3845C240.263 70.4914 236.01 68.0918 232.678 70.1047L196.904 91.7145C184.914 98.9573 177.586 111.945 177.586 125.953Z" fill="#F3F4F7" stroke="#F3F3F3" stroke-width="2"/>
<path d="M177.586 125.622V152.475C177.586 152.475 197.097 164.986 216.205 153.758C238.047 140.924 240.58 113.33 240.58 113.33V73.2331C240.58 69.3117 236.271 66.9165 232.941 68.9862L196.474 91.6467C184.728 98.9454 177.586 111.793 177.586 125.622Z" fill="#F1F5FE"/>
<path d="M197.825 129.294V125.733C197.825 120.138 222.416 117.594 222.918 117.594C223.42 117.594 222.918 123.19 222.918 123.19C222.918 124.207 220.911 127.768 214.888 130.311C206.269 133.952 198.327 131.837 197.825 129.294Z" fill="url(#paint20_linear_44_851)"/>
<ellipse cx="13.19" cy="5.88623" rx="13.19" ry="5.88623" transform="matrix(0.950537 -0.310612 0.303105 0.952957 196.282 119.656)" fill="#F9AEC5"/>
<path d="M197.825 124.207V120.646C197.825 115.051 222.416 112.507 222.918 112.507C223.42 112.507 222.918 118.103 222.918 118.103C222.918 119.12 220.911 122.681 214.888 125.224C206.269 128.865 198.327 126.75 197.825 124.207Z" fill="url(#paint21_linear_44_851)"/>
<ellipse cx="13.19" cy="5.88623" rx="13.19" ry="5.88623" transform="matrix(0.950537 -0.310612 0.303105 0.952957 196.282 114.57)" fill="#F9AEC5"/>
<path d="M197.826 119.12V115.56C197.826 109.964 222.416 107.421 222.918 107.421C223.42 107.421 222.918 113.016 222.918 113.016C222.918 114.034 220.911 117.594 214.889 120.138C206.269 123.778 198.327 121.664 197.826 119.12Z" fill="url(#paint22_linear_44_851)"/>
<ellipse cx="13.247" cy="5.98453" rx="13.247" ry="5.98453" transform="matrix(0.950537 -0.310612 0.303105 0.952957 196.089 109.546)" fill="#F9AEC5"/>
<ellipse cx="8.74191" cy="13.2812" rx="8.74191" ry="13.2812" transform="matrix(0.985618 0.168992 -0.164612 0.986358 207.093 139.961)" fill="#6386FF"/>
<path d="M206.392 227.876V223.705L233.616 207.341V211.191L206.392 227.876Z" fill="#EAEAEA"/>
<path d="M206.392 235.256V231.084L224.752 220.175V224.026L206.392 235.256Z" fill="#EAEAEA"/>
<ellipse cx="6.1352" cy="9.32092" rx="6.1352" ry="9.32092" transform="matrix(0.985618 0.168992 -0.164612 0.986358 191.734 224.667)" fill="#B2C3FF"/>
<path d="M206.392 196.432V192.261L233.616 175.897V179.747L206.392 196.432Z" fill="#EAEAEA"/>
<path d="M206.392 203.812V199.641L224.752 188.731V192.582L206.392 203.812Z" fill="#EAEAEA"/>
<ellipse cx="6.1352" cy="9.32092" rx="6.1352" ry="9.32092" transform="matrix(0.985618 0.168992 -0.164612 0.986358 191.734 193.223)" fill="#B2C3FF"/>
<path d="M210.824 156.439L213.435 159.854L217.788 150.229" stroke="white" stroke-width="3" stroke-linecap="round" stroke-linejoin="round"/>
<path d="M234.237 65.8424C231.969 66.1752 231.083 66.8062 230.45 67.1271L233.932 68.4105C236.527 66.5056 239.313 67.4479 239.313 67.4479C238.575 66.9132 236.504 65.5096 234.237 65.8424Z" fill="#F3F3F3"/>
<path d="M44.3173 88.6244C44.3173 -4.45554 195.306 -41.9257 202.831 85.4064" stroke="#F9B2C8" stroke-width="2.78633" stroke-linecap="round" stroke-linejoin="round" stroke-dasharray="9.29 13.93"/>
<path d="M330.09 59.2827C333.362 -20.3721 217.879 -18.9735 217.879 76.194" stroke="#F9B2C8" stroke-width="2.78633" stroke-linecap="round" stroke-linejoin="round" stroke-dasharray="9.29 13.93"/>
<path d="M159.542 61.6726C159.542 30.8704 210.682 -17.7193 210.682 80.7641" stroke="#F9B2C8" stroke-width="2.78633" stroke-linecap="round" stroke-linejoin="round" stroke-dasharray="9.29 13.93"/>
<path d="M72.807 184.56C38.6033 26.7143 194.979 -4.45556 194.979 90.7119" stroke="#F9B2C8" stroke-width="2.78633" stroke-linecap="round" stroke-linejoin="round" stroke-dasharray="9.29 13.93"/>
<mask id="mask0_44_851" style="mask-type:alpha" maskUnits="userSpaceOnUse" x="125" y="248" width="51" height="35">
<ellipse cx="12.3505" cy="27.4744" rx="12.3505" ry="27.4744" transform="matrix(-0.377741 0.925911 0.891555 0.452913 131.029 241.269)" fill="#F4A0D7"/>
</mask>
<g mask="url(#mask0_44_851)">
<ellipse cx="12.3505" cy="27.4744" rx="12.3505" ry="27.4744" transform="matrix(-0.377741 0.925911 0.891555 0.452913 127.615 249.636)" fill="#BECCFF"/>
</g>
<mask id="mask1_44_851" style="mask-type:alpha" maskUnits="userSpaceOnUse" x="140" y="230" width="39" height="51">
<ellipse cx="11.7609" cy="28.9148" rx="11.7609" ry="28.9148" transform="matrix(-0.759273 0.650773 0.566987 0.823727 152.054 224.344)" fill="#C4C4C4"/>
</mask>
<g mask="url(#mask1_44_851)">
<ellipse cx="11.7609" cy="28.9148" rx="11.7609" ry="28.9148" transform="matrix(-0.759273 0.650773 0.566987 0.823727 145.52 229.945)" fill="#8FA6F9"/>
</g>
<mask id="mask2_44_851" style="mask-type:alpha" maskUnits="userSpaceOnUse" x="162" y="230" width="21" height="53">
<ellipse cx="9.77651" cy="25.9916" rx="9.77651" ry="25.9916" transform="matrix(-0.990815 0.135224 0.10895 0.994047 179.501 229.704)" fill="#8D8D8D"/>
</mask>
<g mask="url(#mask2_44_851)">
<ellipse cx="9.77651" cy="25.9916" rx="9.77651" ry="25.9916" transform="matrix(-0.990815 0.135224 0.10895 0.994047 172.414 230.671)" fill="#6386FF"/>
</g>
<defs>
<linearGradient id="paint0_linear_44_851" x1="208.009" y1="106.968" x2="187.363" y2="195.357" gradientUnits="userSpaceOnUse">
<stop stop-color="#6885EF" stop-opacity="0.43"/>
<stop offset="1" stop-color="#FFC6EC" stop-opacity="0.3"/>
</linearGradient>
<linearGradient id="paint1_linear_44_851" x1="45.3917" y1="234.121" x2="95.293" y2="234.121" gradientUnits="userSpaceOnUse">
<stop stop-color="#F9AEC5"/>
<stop offset="0.535912" stop-color="#FFDAE6"/>
<stop offset="1" stop-color="#F9AEC5"/>
</linearGradient>
<linearGradient id="paint2_linear_44_851" x1="45.3917" y1="224.875" x2="95.293" y2="224.875" gradientUnits="userSpaceOnUse">
<stop stop-color="#F9AEC5"/>
<stop offset="0.535912" stop-color="#FFDAE6"/>
<stop offset="1" stop-color="#F9AEC5"/>
</linearGradient>
<linearGradient id="paint3_linear_44_851" x1="45.3917" y1="215.945" x2="95.293" y2="215.945" gradientUnits="userSpaceOnUse">
<stop stop-color="#F9AEC5"/>
<stop offset="0.535912" stop-color="#FFDAE6"/>
<stop offset="1" stop-color="#F9AEC5"/>
</linearGradient>
<linearGradient id="paint4_linear_44_851" x1="45.3917" y1="207.015" x2="95.293" y2="207.015" gradientUnits="userSpaceOnUse">
<stop stop-color="#F9AEC5"/>
<stop offset="0.535912" stop-color="#FFDAE6"/>
<stop offset="1" stop-color="#F9AEC5"/>
</linearGradient>
<linearGradient id="paint5_linear_44_851" x1="49.1674" y1="198.085" x2="99.0688" y2="198.085" gradientUnits="userSpaceOnUse">
<stop stop-color="#F9AEC5"/>
<stop offset="0.535912" stop-color="#FFDAE6"/>
<stop offset="1" stop-color="#F9AEC5"/>
</linearGradient>
<linearGradient id="paint6_linear_44_851" x1="30.8249" y1="114.309" x2="57.7525" y2="114.309" gradientUnits="userSpaceOnUse">
<stop stop-color="#F9AEC5"/>
<stop offset="0.535912" stop-color="#FFDAE6"/>
<stop offset="1" stop-color="#F9AEC5"/>
</linearGradient>
<linearGradient id="paint7_linear_44_851" x1="30.8249" y1="109.319" x2="57.7525" y2="109.319" gradientUnits="userSpaceOnUse">
<stop stop-color="#F9AEC5"/>
<stop offset="0.535912" stop-color="#FFDAE6"/>
<stop offset="1" stop-color="#F9AEC5"/>
</linearGradient>
<linearGradient id="paint8_linear_44_851" x1="30.8249" y1="104.501" x2="57.7525" y2="104.501" gradientUnits="userSpaceOnUse">
<stop stop-color="#F9AEC5"/>
<stop offset="0.535912" stop-color="#FFDAE6"/>
<stop offset="1" stop-color="#F9AEC5"/>
</linearGradient>
<linearGradient id="paint9_linear_44_851" x1="30.8249" y1="99.6816" x2="57.7525" y2="99.6816" gradientUnits="userSpaceOnUse">
<stop stop-color="#F9AEC5"/>
<stop offset="0.535912" stop-color="#FFDAE6"/>
<stop offset="1" stop-color="#F9AEC5"/>
</linearGradient>
<linearGradient id="paint10_linear_44_851" x1="30.9631" y1="94.8628" x2="57.8907" y2="94.8628" gradientUnits="userSpaceOnUse">
<stop stop-color="#F9AEC5"/>
<stop offset="0.535912" stop-color="#FFDAE6"/>
<stop offset="1" stop-color="#F9AEC5"/>
</linearGradient>
<linearGradient id="paint11_linear_44_851" x1="147.316" y1="87.3568" x2="174.244" y2="87.3568" gradientUnits="userSpaceOnUse">
<stop stop-color="#F9AEC5"/>
<stop offset="0.535912" stop-color="#FFDAE6"/>
<stop offset="1" stop-color="#F9AEC5"/>
</linearGradient>
<linearGradient id="paint12_linear_44_851" x1="147.316" y1="82.3675" x2="174.244" y2="82.3675" gradientUnits="userSpaceOnUse">
<stop stop-color="#F9AEC5"/>
<stop offset="0.535912" stop-color="#FFDAE6"/>
<stop offset="1" stop-color="#F9AEC5"/>
</linearGradient>
<linearGradient id="paint13_linear_44_851" x1="147.316" y1="77.5487" x2="174.244" y2="77.5487" gradientUnits="userSpaceOnUse">
<stop stop-color="#F9AEC5"/>
<stop offset="0.535912" stop-color="#FFDAE6"/>
<stop offset="1" stop-color="#F9AEC5"/>
</linearGradient>
<linearGradient id="paint14_linear_44_851" x1="147.316" y1="72.7297" x2="174.244" y2="72.7297" gradientUnits="userSpaceOnUse">
<stop stop-color="#F9AEC5"/>
<stop offset="0.535912" stop-color="#FFDAE6"/>
<stop offset="1" stop-color="#F9AEC5"/>
</linearGradient>
<linearGradient id="paint15_linear_44_851" x1="144.289" y1="67.9109" x2="171.216" y2="67.9109" gradientUnits="userSpaceOnUse">
<stop stop-color="#F9AEC5"/>
<stop offset="0.535912" stop-color="#FFDAE6"/>
<stop offset="1" stop-color="#F9AEC5"/>
</linearGradient>
<linearGradient id="paint16_linear_44_851" x1="315.654" y1="75.8558" x2="342.582" y2="75.8558" gradientUnits="userSpaceOnUse">
<stop stop-color="#F9AEC5"/>
<stop offset="0.535912" stop-color="#FFDAE6"/>
<stop offset="1" stop-color="#F9AEC5"/>
</linearGradient>
<linearGradient id="paint17_linear_44_851" x1="315.654" y1="70.8665" x2="342.582" y2="70.8665" gradientUnits="userSpaceOnUse">
<stop stop-color="#F9AEC5"/>
<stop offset="0.535912" stop-color="#FFDAE6"/>
<stop offset="1" stop-color="#F9AEC5"/>
</linearGradient>
<linearGradient id="paint18_linear_44_851" x1="315.654" y1="66.0477" x2="342.582" y2="66.0477" gradientUnits="userSpaceOnUse">
<stop stop-color="#F9AEC5"/>
<stop offset="0.535912" stop-color="#FFDAE6"/>
<stop offset="1" stop-color="#F9AEC5"/>
</linearGradient>
<linearGradient id="paint19_linear_44_851" x1="156.376" y1="303.264" x2="116.261" y2="264.014" gradientUnits="userSpaceOnUse">
<stop stop-color="#F3F3F3"/>
<stop offset="1" stop-color="#F3F3F3" stop-opacity="0"/>
</linearGradient>
<linearGradient id="paint20_linear_44_851" x1="197.825" y1="131.837" x2="222.918" y2="131.837" gradientUnits="userSpaceOnUse">
<stop stop-color="#F9AEC5"/>
<stop offset="0.535912" stop-color="#FFDAE6"/>
<stop offset="1" stop-color="#F9AEC5"/>
</linearGradient>
<linearGradient id="paint21_linear_44_851" x1="197.825" y1="126.75" x2="222.918" y2="126.75" gradientUnits="userSpaceOnUse">
<stop stop-color="#F9AEC5"/>
<stop offset="0.535912" stop-color="#FFDAE6"/>
<stop offset="1" stop-color="#F9AEC5"/>
</linearGradient>
<linearGradient id="paint22_linear_44_851" x1="197.826" y1="121.664" x2="222.918" y2="121.664" gradientUnits="userSpaceOnUse">
<stop stop-color="#F9AEC5"/>
<stop offset="0.535912" stop-color="#FFDAE6"/>
<stop offset="1" stop-color="#F9AEC5"/>
</linearGradient>
</defs>
</svg>
