<svg width="287" height="222" viewBox="0 0 287 222" fill="none" xmlns="http://www.w3.org/2000/svg">
<path d="M39.7729 144.561C67.5542 173.808 91.0526 151.336 118.017 139.094C164.981 117.771 218.809 170.636 242.967 142.368C260.86 121.431 245.055 67.4936 207.329 42.4916C174.475 20.7187 137.687 20.9574 94.3181 38.7209C48.1284 57.6399 9.87521 113.086 39.7729 144.561Z" fill="url(#paint0_linear_44_788)" fill-opacity="0.1"/>
<ellipse cx="38.0948" cy="7.79757" rx="38.0948" ry="7.79757" transform="matrix(0.999849 0.0174041 -0.0193115 0.999813 160.845 196.75)" fill="#F3F3F3"/>
<path d="M26.5021 185.3H94.0908L151.795 219.483H76.0421C65.655 219.483 55.4458 216.786 46.4135 211.657L23.0455 198.387C16.7948 194.837 19.3139 185.3 26.5021 185.3Z" fill="#F1F5FE"/>
<mask id="mask0_44_788" style="mask-type:alpha" maskUnits="userSpaceOnUse" x="231" y="176" width="52" height="30">
<ellipse cx="11.007" cy="27.1965" rx="11.007" ry="27.1965" transform="matrix(0.432544 0.90162 -0.918007 0.39658 277.478 170.245)" fill="#F4A0D7"/>
</mask>
<g mask="url(#mask0_44_788)">
<ellipse cx="11.007" cy="27.1965" rx="11.007" ry="27.1965" transform="matrix(0.432544 0.90162 -0.918007 0.396579 280.958 177.502)" fill="#FCE1E9"/>
</g>
<mask id="mask1_44_788" style="mask-type:alpha" maskUnits="userSpaceOnUse" x="229" y="161" width="40" height="45">
<ellipse cx="11.2628" cy="26.5749" rx="11.2628" ry="26.5749" transform="matrix(0.808027 0.589147 -0.629018 0.777392 256.619 156.098)" fill="#C4C4C4"/>
</mask>
<g mask="url(#mask1_44_788)">
<ellipse cx="11.2628" cy="26.5749" rx="11.2628" ry="26.5749" transform="matrix(0.808027 0.589147 -0.629019 0.777392 263.28 160.955)" fill="#FFBDD1"/>
</g>
<mask id="mask2_44_788" style="mask-type:alpha" maskUnits="userSpaceOnUse" x="225" y="161" width="21" height="46">
<ellipse cx="9.93717" cy="22.5953" rx="9.93717" ry="22.5953" transform="matrix(0.993347 0.115179 -0.127945 0.991783 228.641 160.215)" fill="#8D8D8D"/>
</mask>
<g mask="url(#mask2_44_788)">
<ellipse cx="9.93717" cy="22.5953" rx="9.93717" ry="22.5953" transform="matrix(0.993347 0.115179 -0.127945 0.991783 235.866 161.054)" fill="#F9AC75"/>
</g>
<path d="M68.5687 171.36C78.5742 180.833 80.6815 198.801 80.4844 206.601C75.3631 198.63 64.0893 187.086 56.2719 182.486C50.2534 178.945 36.8251 163.733 31.526 154.457C36.2613 161.019 56.0618 159.518 68.5687 171.36Z" fill="white"/>
<path d="M52.58 181.047C66.1055 184.931 76.9797 199.568 80.7261 206.401C72.2343 201.711 56.5573 196.581 47.3975 195.97C40.3454 195.499 20.9379 188.124 11.6348 182.382C19.0801 186.018 35.6732 176.191 52.58 181.047Z" fill="white"/>
<path d="M182.242 137.046L187.816 134.515V129.224L180.061 132.674L182.242 137.046Z" fill="#FCD8E3"/>
<path d="M161.4 120.941L165.762 118.871L167.701 122.322L163.824 124.392L161.4 120.941Z" fill="#FCD8E3"/>
<path d="M180.061 139.346L182.484 137.046L180.545 132.674C179.899 132.905 178.364 133.319 177.395 133.135C176.183 132.905 174.244 133.135 173.275 133.825C172.306 134.515 172.548 135.665 173.275 137.046C173.857 138.15 178.041 139.039 180.061 139.346Z" fill="#FCD8E3"/>
<path d="M161.643 120.941L164.066 124.392C163.824 124.546 163.145 124.944 162.37 125.312C161.4 125.773 160.188 126.463 159.461 126.693C158.734 126.923 158.007 126.693 156.069 124.392C154.518 122.552 156.069 121.632 157.038 121.401C157.119 121.248 157.426 120.941 158.007 120.941H161.643Z" fill="#FCD8E3"/>
<path d="M180.303 110.589L193.39 99.0856C195.409 99.0856 199.06 100.558 199.448 103.687C199.836 106.816 196.863 109.592 195.328 110.589L182.726 117.951L166.489 123.242L164.793 118.641L180.303 110.589Z" fill="#B2C3FF"/>
<path d="M203.083 91.9537L202.114 95.4046L203.81 99.7758L211.081 96.785V90.5734L203.083 91.9537Z" fill="#FCD8E3"/>
<path d="M199.448 87.8126C199.448 88.9169 202.033 91.1868 203.326 92.1838C205.345 92.1838 209.723 91.8157 211.081 90.3433C212.777 88.5028 214.231 82.5212 214.716 79.9906C215.2 77.4599 211.081 74.6992 208.9 74.009C206.718 73.3188 204.295 74.9292 202.356 77.4599C200.417 79.9906 199.448 86.4323 199.448 87.8126Z" fill="#FCD8E3"/>
<path d="M208.172 91.4936C208.711 90.8113 203.88 88.4297 200.662 87.9014C200.221 87.8289 199.69 88.0556 199.69 88.5028C199.69 88.7329 202.841 92.6439 202.841 92.6439L202.599 94.0243C203.083 94.1009 204.78 93.7942 204.78 93.7942C204.78 93.7942 207.445 92.4138 208.172 91.4936Z" fill="#EDD2E4"/>
<path d="M189.997 110.359C189.803 108.334 192.178 102 193.39 99.0856L200.66 96.5549L202.415 94.2543L203.459 98.1086L205.807 95.8793L212.33 93.8976C212.249 95.1246 214.522 97.7972 215.685 99.0856C217.139 100.696 217.866 107.368 217.866 110.359C217.866 112.751 214.15 130.22 212.292 138.656C211.081 138.963 207.639 139.622 203.568 139.806C199.497 139.99 194.278 137.736 192.178 136.585C191.532 128.687 190.191 112.383 189.997 110.359Z" fill="#B2C3FF"/>
<path d="M212.33 93.8976L211.081 93.6499V94.2859L212.33 93.8976Z" fill="#DADADA"/>
<path d="M182.66 200.082C182.924 199.832 184.665 198.242 185.297 196.5C185.957 197.229 187.803 197.375 188.594 197.125C189.385 196.875 190.284 196.232 190.724 195.711C191.823 197.377 194 200.373 193.209 200.873L189.583 202.747C188.044 203.476 184.506 205.058 182.66 205.558C180.814 206.057 178.155 205.766 177.056 205.558C176.946 205.141 176.792 204.513 177.056 203.763C177.385 202.826 182.33 200.395 182.66 200.082Z" fill="#2B3A7C"/>
<path d="M205.508 205.604C206.09 204.683 206.396 200.772 206.477 198.932L207.204 197.552H211.566L212.051 200.082V204.913C212.051 206.064 212.536 208.824 212.051 209.285C211.566 209.745 209.87 210.665 207.204 210.435C204.539 210.205 204.781 206.754 205.508 205.604Z" fill="#2B3A7C"/>
<path d="M178.849 165.573C179.237 163.733 187.896 142.777 191.936 133.651V130.661C193.955 131.274 197.488 132.254 201.387 132.501C205.022 132.731 211.938 132.961 213.635 132.501L213.15 135.262L212.908 144.924L210.727 171.325L212.05 197.552C212.05 198.165 211.614 199.392 209.869 199.392C208.124 199.392 207.042 198.932 206.718 198.702L199.691 172.015L197.196 151.86L188.785 171.095L190.966 195.941C190.643 196.325 189.609 197.367 188.058 197.552C186.507 197.736 185.392 197.628 185.15 197.091C183.05 188.426 178.461 167.414 178.849 165.573Z" fill="#3C56C6"/>
<path d="M211.565 103.227C210.111 105.297 207.203 111.509 207.203 111.509C207.203 111.509 202.114 119.101 200.418 120.481C198.721 121.862 185.15 129.454 185.15 129.454L188.058 135.435L206.234 127.153C206.234 127.153 216.897 120.021 218.836 116.11C220.774 112.199 221.501 109.438 221.017 106.217C220.532 102.997 216.412 100.236 216.412 100.236C216.412 100.236 213.019 101.156 211.565 103.227Z" fill="url(#paint1_linear_44_788)"/>
<path d="M202.356 77.4599C201.872 76.5397 200.777 74.4961 201.871 72.8587C203.264 70.7758 205.581 70.0533 208.172 69.8679C210.503 69.7012 212.292 71.4783 213.504 72.3986C215.443 72.1685 216.897 74.239 217.382 75.8495C217.866 77.4599 217.382 80.4507 216.412 82.0611C215.637 83.3494 213.181 87.2758 212.535 88.0427C213.262 86.6623 213.617 84.3913 214.231 82.0611C214.716 80.2206 212.777 76.7697 211.808 75.6194C210.596 75.8495 209.239 75.3433 206.718 75.1593C204.198 74.9752 203.083 76.7697 202.356 77.4599Z" fill="#3049A0"/>
<path d="M201.629 98.8203L202.937 96.127L203.459 98.1086L205.807 95.8793L205.507 99.2804L203.459 98.1086L201.629 98.8203Z" fill="#97ADF9"/>
<path d="M181.999 133.825L181.03 132.214L183.211 131.294L184.181 132.904L181.999 133.825Z" fill="#293253"/>
<path d="M183.211 136.585L182.484 135.205L184.908 134.285L185.635 135.665L183.211 136.585Z" fill="#293253"/>
<ellipse cx="183.211" cy="134.055" rx="1.93875" ry="1.84048" fill="#B2C3FF"/>
<path d="M175.867 154.449C170.419 178.453 160.906 216.958 155.745 217.908L151.899 216.246C148.255 214.936 127.313 173.407 115.384 152.199C119.656 142.032 124.96 122.094 127.719 111.207C128.656 107.51 132.938 105.799 136.17 107.845L163.634 125.237C173.469 131.466 178.437 143.128 175.867 154.449Z" fill="#6386FF"/>
<path d="M75.4 114.758C74.5319 116.764 89.9324 177.744 93.5146 184.802C98.1474 188.457 134.483 211.017 142.4 215.231C152.296 220.499 153.669 219.329 155.978 217.902C151.524 217.83 140.784 180.17 135.197 159.398C132.878 150.776 127.68 143.198 120.339 138.101C107.046 128.871 86.3622 114.683 82.6666 113.16C77.1415 110.882 76.4851 112.252 75.4 114.758Z" fill="#DAE2FF"/>
<path d="M145.012 217.253C140.315 214.528 115.413 199.236 102.194 190.648C102.194 190.648 115.528 190.005 121.006 181.832C126.485 173.658 132.368 149.385 128.309 144.183C131.962 147.651 132.223 147.899 134.05 155.329C135.876 162.76 141.879 182.824 146.315 197.438C148.721 205.364 154.317 217.254 155.709 217.997C152.839 220.226 148.9 219.509 145.012 217.253Z" fill="#3C56C6" fill-opacity="0.2"/>
<path d="M93.2169 116.96C93.4253 122.355 94.8189 133.947 95.7007 142.777C95.8832 144.603 96.9385 146.233 98.5402 147.136L107.445 152.156C109.419 153.269 111.816 151.695 111.569 149.445C110.504 139.776 109.24 128.407 109.018 122.649C108.703 114.503 106.505 107.25 101.403 105.492C96.3015 103.733 92.8831 108.319 93.2169 116.96Z" fill="#BAC6F4"/>
<ellipse cx="4.72396" cy="6.95464" rx="4.72396" ry="6.95464" transform="matrix(0.996643 -0.0797459 0.0885759 0.996261 95.3036 109.784)" fill="white"/>
<path d="M111.477 2C105.5 8.67176 93.5924 27.6288 93.7863 50.0827C94.0286 78.1501 104.207 92.1838 111.477 102.767C118.748 113.349 118.99 126.923 116.809 134.515" stroke="#F9B2C8" stroke-width="2.78633" stroke-linecap="round" stroke-linejoin="round" stroke-dasharray="9.29 13.93"/>
<path d="M138.749 169.695C167.19 152.603 170.125 112.429 164.551 93.3341C157.385 68.7857 136.677 62.0126 138.135 40.6502C138.778 31.2367 148.071 20.4048 148.071 20.4048" stroke="#F9B2C8" stroke-width="2.78633" stroke-linecap="round" stroke-linejoin="round" stroke-dasharray="9.29 13.93"/>
<path d="M135.096 156.319C149.708 133.778 144.691 118.916 134.574 107.274C117.123 87.1936 84.7366 107.274 66.4717 88.9436" stroke="#F9B2C8" stroke-width="2.78633" stroke-linecap="round" stroke-linejoin="round" stroke-dasharray="9.29 13.93"/>
<path d="M142.497 8.21164L148.314 5.22086L158.492 28.457L152.191 30.5275C150.01 29.7607 145.26 26.9386 142.74 21.7852C140.219 16.6319 141.528 10.2822 142.497 8.21164Z" fill="url(#paint2_linear_44_788)"/>
<ellipse cx="8.41882" cy="12.7571" rx="8.41882" ry="12.7571" transform="matrix(0.92872 -0.370783 0.405043 0.914297 139.932 8.41165)" fill="#F9AEC5"/>
<path d="M47.3154 80.0845C47.5954 77.1609 47.5994 78.0808 47.5994 78.0808L71.3931 76.0978C71.3931 76.0978 72.0821 83.0581 70.3857 86.5027C68.6893 89.9473 63.3128 94.3346 56.8346 93.3736C47.8754 92.0447 47.0354 83.0081 47.3154 80.0845Z" fill="url(#paint3_linear_44_788)"/>
<ellipse cx="11.9924" cy="12.9518" rx="11.9924" ry="12.9518" transform="matrix(0.996086 0.0883867 -0.12371 0.992318 49.1074 64.4211)" fill="#F9AEC5"/>
<path d="M133.004 127.895L133.004 125.43L151.556 125.206L149.869 129.687C148.558 131.574 145.934 133.74 140.875 133.384C135.815 133.027 133.566 129.911 133.004 127.895Z" fill="url(#paint4_linear_44_788)"/>
<ellipse cx="9.25507" cy="7.14988" rx="9.25507" ry="7.14988" transform="matrix(0.998029 0.0627493 -0.173284 0.984872 134.17 116.934)" fill="#F9AEC5"/>
<path d="M141.963 72.3342L144.802 68.0941L170.033 84.6698L166.329 89.0242C163.661 89.5496 156.71 89.1346 150.633 84.7185C145.277 80.8255 141.942 75.4293 141.963 72.3342Z" fill="url(#paint5_linear_44_788)"/>
<ellipse cx="7.70945" cy="14.8952" rx="7.70945" ry="14.8952" transform="matrix(0.583343 -0.797637 0.844794 0.556832 140.254 74.3304)" fill="#F9AEC5"/>
<path d="M84.3707 37.8454L81.6046 34.2523L112.275 17.8456L114.471 22.5204C113.35 24.573 108.715 29.2633 101.823 32.4821C94.6423 35.8361 87.265 38.8169 84.3707 37.8454Z" fill="url(#paint6_linear_44_788)"/>
<ellipse cx="3.54208" cy="16.9637" rx="3.54208" ry="16.9637" transform="matrix(0.492912 0.847288 -0.90317 0.473672 110.406 14.9065)" fill="#F9AEC5"/>
<defs>
<linearGradient id="paint0_linear_44_788" x1="243.493" y1="77.6388" x2="28.8694" y2="120.415" gradientUnits="userSpaceOnUse">
<stop stop-color="#4066EA"/>
<stop offset="1" stop-color="#4066EA" stop-opacity="0.4"/>
</linearGradient>
<linearGradient id="paint1_linear_44_788" x1="216.655" y1="100.466" x2="192.259" y2="136.634" gradientUnits="userSpaceOnUse">
<stop stop-color="#97ACF8"/>
<stop offset="1" stop-color="#B2C3FF"/>
</linearGradient>
<linearGradient id="paint2_linear_44_788" x1="147.344" y1="5.22086" x2="157.553" y2="29.7677" gradientUnits="userSpaceOnUse">
<stop stop-color="#F9AEC5"/>
<stop offset="0.508287" stop-color="#FFDAE6"/>
<stop offset="1" stop-color="#F9AEC5"/>
</linearGradient>
<linearGradient id="paint3_linear_44_788" x1="48.8517" y1="84.6616" x2="69.667" y2="93.3466" gradientUnits="userSpaceOnUse">
<stop stop-color="#F9AEC5"/>
<stop offset="0.508287" stop-color="#FFDAE6"/>
<stop offset="1" stop-color="#F9AEC5"/>
</linearGradient>
<linearGradient id="paint4_linear_44_788" x1="133.973" y1="128.18" x2="148.005" y2="136.443" gradientUnits="userSpaceOnUse">
<stop stop-color="#F9AEC5"/>
<stop offset="0.508287" stop-color="#FFDDE7"/>
<stop offset="1" stop-color="#F9AEC5"/>
</linearGradient>
<linearGradient id="paint5_linear_44_788" x1="145.452" y1="67.6755" x2="169.653" y2="86.5141" gradientUnits="userSpaceOnUse">
<stop stop-color="#F9AEC5"/>
<stop offset="0.508287" stop-color="#FFDCE7"/>
<stop offset="1" stop-color="#F9AEC5"/>
</linearGradient>
<linearGradient id="paint6_linear_44_788" x1="79.4751" y1="32.1266" x2="109.226" y2="14.5877" gradientUnits="userSpaceOnUse">
<stop stop-color="#F9AEC5"/>
<stop offset="0.508287" stop-color="#FFDCE7"/>
<stop offset="1" stop-color="#F9AEC5"/>
</linearGradient>
</defs>
</svg>
